<mxfile host="Electron" agent="Mozilla/5.0 (Windows NT 10.0; Win64; x64) AppleWebKit/537.36 (KHTML, like Gecko) draw.io/27.0.9 Chrome/134.0.6998.205 Electron/35.4.0 Safari/537.36" version="27.0.9">
  <diagram name="Página-1" id="IZqAts2g6bXaED-vM-Xr">
<<<<<<< Updated upstream
    <mxGraphModel dx="1595" dy="833" grid="1" gridSize="10" guides="1" tooltips="1" connect="1" arrows="1" fold="1" page="1" pageScale="1" pageWidth="1654" pageHeight="2336" math="0" shadow="0">
=======
    <mxGraphModel dx="5424" dy="2832" grid="1" gridSize="10" guides="1" tooltips="1" connect="1" arrows="1" fold="1" page="1" pageScale="1" pageWidth="1654" pageHeight="2336" math="0" shadow="0">
>>>>>>> Stashed changes
      <root>
        <mxCell id="0" />
        <mxCell id="1" parent="0" />
        <mxCell id="0boTivlSuVRbXw25WTQz-9" value="" style="group" parent="1" vertex="1" connectable="0">
          <mxGeometry x="276" y="410" width="104" height="60" as="geometry" />
        </mxCell>
        <mxCell id="0boTivlSuVRbXw25WTQz-5" value="" style="verticalLabelPosition=bottom;verticalAlign=top;html=1;shape=card;whiteSpace=wrap;size=20;arcSize=12;" parent="0boTivlSuVRbXw25WTQz-9" vertex="1">
          <mxGeometry width="104" height="60" as="geometry" />
        </mxCell>
        <mxCell id="0boTivlSuVRbXw25WTQz-6" value="Email" style="text;html=1;align=center;verticalAlign=middle;whiteSpace=wrap;rounded=0;" parent="0boTivlSuVRbXw25WTQz-9" vertex="1">
          <mxGeometry x="22" y="15" width="60" height="30" as="geometry" />
        </mxCell>
        <mxCell id="VMltcIXAbGf6lN5rMRbk-11" style="edgeStyle=orthogonalEdgeStyle;rounded=0;orthogonalLoop=1;jettySize=auto;html=1;exitX=1;exitY=0.5;exitDx=0;exitDy=0;entryX=0.5;entryY=0;entryDx=0;entryDy=0;" parent="1" source="0boTivlSuVRbXw25WTQz-11" target="0boTivlSuVRbXw25WTQz-12" edge="1">
          <mxGeometry relative="1" as="geometry">
            <mxPoint x="647.0000000000005" y="550" as="sourcePoint" />
          </mxGeometry>
        </mxCell>
        <mxCell id="sWguPrteYLZPSMapMaY1-14" value="" style="edgeStyle=orthogonalEdgeStyle;rounded=0;orthogonalLoop=1;jettySize=auto;html=1;" parent="1" source="0boTivlSuVRbXw25WTQz-11" target="sWguPrteYLZPSMapMaY1-13" edge="1">
          <mxGeometry relative="1" as="geometry" />
        </mxCell>
        <mxCell id="0boTivlSuVRbXw25WTQz-11" value="Email tem domínio &quot;ufrpe&quot; ou &quot;gmail&quot;?" style="rhombus;whiteSpace=wrap;html=1;" parent="1" vertex="1">
          <mxGeometry x="288" y="490" width="80" height="80" as="geometry" />
        </mxCell>
        <mxCell id="VMltcIXAbGf6lN5rMRbk-12" style="edgeStyle=orthogonalEdgeStyle;rounded=0;orthogonalLoop=1;jettySize=auto;html=1;exitX=1;exitY=0.5;exitDx=0;exitDy=0;entryX=0.5;entryY=0;entryDx=0;entryDy=0;" parent="1" source="0boTivlSuVRbXw25WTQz-12" target="VMltcIXAbGf6lN5rMRbk-4" edge="1">
          <mxGeometry relative="1" as="geometry" />
        </mxCell>
        <mxCell id="VMltcIXAbGf6lN5rMRbk-20" value="" style="edgeStyle=orthogonalEdgeStyle;rounded=0;orthogonalLoop=1;jettySize=auto;html=1;" parent="1" source="0boTivlSuVRbXw25WTQz-12" target="VMltcIXAbGf6lN5rMRbk-15" edge="1">
          <mxGeometry relative="1" as="geometry" />
        </mxCell>
        <mxCell id="0boTivlSuVRbXw25WTQz-12" value="Email não possui espaços em branco?" style="rhombus;whiteSpace=wrap;html=1;" parent="1" vertex="1">
          <mxGeometry x="487" y="590" width="80" height="80" as="geometry" />
        </mxCell>
        <mxCell id="VMltcIXAbGf6lN5rMRbk-1" value="" style="edgeStyle=orthogonalEdgeStyle;rounded=0;orthogonalLoop=1;jettySize=auto;html=1;exitX=0.5;exitY=1;exitDx=0;exitDy=0;exitPerimeter=0;" parent="1" source="0boTivlSuVRbXw25WTQz-5" target="0boTivlSuVRbXw25WTQz-11" edge="1">
          <mxGeometry relative="1" as="geometry" />
        </mxCell>
        <mxCell id="VMltcIXAbGf6lN5rMRbk-13" style="edgeStyle=orthogonalEdgeStyle;rounded=0;orthogonalLoop=1;jettySize=auto;html=1;exitX=1;exitY=0.5;exitDx=0;exitDy=0;entryX=0.5;entryY=0;entryDx=0;entryDy=0;" parent="1" source="VMltcIXAbGf6lN5rMRbk-4" target="VMltcIXAbGf6lN5rMRbk-6" edge="1">
          <mxGeometry relative="1" as="geometry" />
        </mxCell>
        <mxCell id="VMltcIXAbGf6lN5rMRbk-19" value="" style="edgeStyle=orthogonalEdgeStyle;rounded=0;orthogonalLoop=1;jettySize=auto;html=1;" parent="1" source="VMltcIXAbGf6lN5rMRbk-4" target="VMltcIXAbGf6lN5rMRbk-16" edge="1">
          <mxGeometry relative="1" as="geometry" />
        </mxCell>
        <mxCell id="VMltcIXAbGf6lN5rMRbk-4" value="Email possui &quot;.com&quot; no final?" style="rhombus;whiteSpace=wrap;html=1;" parent="1" vertex="1">
          <mxGeometry x="567" y="670" width="80" height="80" as="geometry" />
        </mxCell>
        <mxCell id="VMltcIXAbGf6lN5rMRbk-14" style="edgeStyle=orthogonalEdgeStyle;rounded=0;orthogonalLoop=1;jettySize=auto;html=1;exitX=1;exitY=0.5;exitDx=0;exitDy=0;entryX=0.5;entryY=0;entryDx=0;entryDy=0;" parent="1" source="VMltcIXAbGf6lN5rMRbk-6" target="VMltcIXAbGf6lN5rMRbk-7" edge="1">
          <mxGeometry relative="1" as="geometry" />
        </mxCell>
        <mxCell id="VMltcIXAbGf6lN5rMRbk-18" value="" style="edgeStyle=orthogonalEdgeStyle;rounded=0;orthogonalLoop=1;jettySize=auto;html=1;" parent="1" source="VMltcIXAbGf6lN5rMRbk-6" target="VMltcIXAbGf6lN5rMRbk-17" edge="1">
          <mxGeometry relative="1" as="geometry" />
        </mxCell>
        <mxCell id="VMltcIXAbGf6lN5rMRbk-6" value="Email possui &quot;@&quot;?" style="rhombus;whiteSpace=wrap;html=1;" parent="1" vertex="1">
          <mxGeometry x="630" y="765" width="80" height="80" as="geometry" />
        </mxCell>
        <mxCell id="VMltcIXAbGf6lN5rMRbk-30" value="" style="edgeStyle=orthogonalEdgeStyle;rounded=0;orthogonalLoop=1;jettySize=auto;html=1;entryX=0.5;entryY=0;entryDx=0;entryDy=0;exitX=0;exitY=0.5;exitDx=0;exitDy=0;" parent="1" source="VMltcIXAbGf6lN5rMRbk-7" target="VMltcIXAbGf6lN5rMRbk-21" edge="1">
          <mxGeometry relative="1" as="geometry" />
        </mxCell>
        <mxCell id="sWguPrteYLZPSMapMaY1-10" style="edgeStyle=orthogonalEdgeStyle;rounded=0;orthogonalLoop=1;jettySize=auto;html=1;exitX=1;exitY=0.5;exitDx=0;exitDy=0;entryX=0.5;entryY=0;entryDx=0;entryDy=0;" parent="1" source="VMltcIXAbGf6lN5rMRbk-7" target="VMltcIXAbGf6lN5rMRbk-76" edge="1">
          <mxGeometry relative="1" as="geometry" />
        </mxCell>
        <mxCell id="VMltcIXAbGf6lN5rMRbk-7" value="Email é diferente de qualquer outro salvo no banco de dados&quot;?" style="rhombus;whiteSpace=wrap;html=1;" parent="1" vertex="1">
          <mxGeometry x="710" y="860" width="80" height="80" as="geometry" />
        </mxCell>
        <mxCell id="VMltcIXAbGf6lN5rMRbk-94" value="" style="edgeStyle=orthogonalEdgeStyle;rounded=0;orthogonalLoop=1;jettySize=auto;html=1;" parent="1" source="VMltcIXAbGf6lN5rMRbk-15" edge="1">
          <mxGeometry relative="1" as="geometry">
            <mxPoint x="239.99989669408114" y="630.0909090909088" as="targetPoint" />
          </mxGeometry>
        </mxCell>
        <mxCell id="VMltcIXAbGf6lN5rMRbk-15" value="&quot;O email inserido possui espaço em branco. Digite-o novamente&quot;" style="shape=document;whiteSpace=wrap;html=1;boundedLbl=1;" parent="1" vertex="1">
          <mxGeometry x="275" y="590" width="120" height="80" as="geometry" />
        </mxCell>
        <mxCell id="VMltcIXAbGf6lN5rMRbk-93" value="" style="edgeStyle=orthogonalEdgeStyle;rounded=0;orthogonalLoop=1;jettySize=auto;html=1;" parent="1" source="VMltcIXAbGf6lN5rMRbk-16" target="VMltcIXAbGf6lN5rMRbk-90" edge="1">
          <mxGeometry relative="1" as="geometry" />
        </mxCell>
        <mxCell id="VMltcIXAbGf6lN5rMRbk-16" value="&quot;O email inserido não possui &#39;.com&#39; no final. Digite-o novamente&quot;" style="shape=document;whiteSpace=wrap;html=1;boundedLbl=1;" parent="1" vertex="1">
          <mxGeometry x="340" y="670" width="120" height="80" as="geometry" />
        </mxCell>
        <mxCell id="VMltcIXAbGf6lN5rMRbk-92" value="" style="edgeStyle=orthogonalEdgeStyle;rounded=0;orthogonalLoop=1;jettySize=auto;html=1;" parent="1" source="VMltcIXAbGf6lN5rMRbk-17" target="VMltcIXAbGf6lN5rMRbk-91" edge="1">
          <mxGeometry relative="1" as="geometry" />
        </mxCell>
        <mxCell id="VMltcIXAbGf6lN5rMRbk-17" value="&quot;O email inserido não possui &#39;@&#39;. Digite-o novamente&quot;" style="shape=document;whiteSpace=wrap;html=1;boundedLbl=1;" parent="1" vertex="1">
          <mxGeometry x="460" y="765" width="120" height="80" as="geometry" />
        </mxCell>
        <mxCell id="en4OUeSDDZcLDNvwOnU5-6" value="" style="edgeStyle=orthogonalEdgeStyle;rounded=0;orthogonalLoop=1;jettySize=auto;html=1;" edge="1" parent="1" source="VMltcIXAbGf6lN5rMRbk-21" target="VMltcIXAbGf6lN5rMRbk-139">
          <mxGeometry relative="1" as="geometry" />
        </mxCell>
<<<<<<< Updated upstream
        <mxCell id="VMltcIXAbGf6lN5rMRbk-21" value="&quot;O email já possui cadastro no sistema. Você pode:&lt;div&gt;&lt;br&gt;&lt;div&gt;1 - Realizar Login com este email&lt;/div&gt;&lt;div&gt;&lt;span style=&quot;background-color: transparent; color: light-dark(rgb(0, 0, 0), rgb(255, 255, 255));&quot;&gt;2 - Digitar Email Novamente&quot;&lt;/span&gt;&lt;/div&gt;&lt;/div&gt;" style="shape=document;whiteSpace=wrap;html=1;boundedLbl=1;" parent="1" vertex="1">
          <mxGeometry x="1000" y="1050" width="182" height="120" as="geometry" />
        </mxCell>
        <mxCell id="VMltcIXAbGf6lN5rMRbk-140" value="" style="edgeStyle=orthogonalEdgeStyle;rounded=0;orthogonalLoop=1;jettySize=auto;html=1;" parent="1" source="VMltcIXAbGf6lN5rMRbk-22" target="VMltcIXAbGf6lN5rMRbk-139" edge="1">
          <mxGeometry relative="1" as="geometry" />
        </mxCell>
        <mxCell id="sWguPrteYLZPSMapMaY1-9" style="edgeStyle=orthogonalEdgeStyle;rounded=0;orthogonalLoop=1;jettySize=auto;html=1;exitX=1;exitY=0.5;exitDx=0;exitDy=0;entryX=0.5;entryY=0;entryDx=0;entryDy=0;" parent="1" source="VMltcIXAbGf6lN5rMRbk-22" target="VMltcIXAbGf6lN5rMRbk-76" edge="1">
          <mxGeometry relative="1" as="geometry" />
        </mxCell>
        <mxCell id="VMltcIXAbGf6lN5rMRbk-22" value="O dígito foi 1?" style="rhombus;whiteSpace=wrap;html=1;" parent="1" vertex="1">
          <mxGeometry x="1058.5" y="1280" width="80" height="80" as="geometry" />
        </mxCell>
        <mxCell id="VMltcIXAbGf6lN5rMRbk-24" value="" style="group" parent="1" vertex="1" connectable="0">
          <mxGeometry x="1046.5" y="1190" width="104" height="60" as="geometry" />
        </mxCell>
        <mxCell id="VMltcIXAbGf6lN5rMRbk-25" value="" style="verticalLabelPosition=bottom;verticalAlign=top;html=1;shape=card;whiteSpace=wrap;size=20;arcSize=12;" parent="VMltcIXAbGf6lN5rMRbk-24" vertex="1">
          <mxGeometry width="104" height="60" as="geometry" />
        </mxCell>
        <mxCell id="VMltcIXAbGf6lN5rMRbk-26" value="Dígito" style="text;html=1;align=center;verticalAlign=middle;whiteSpace=wrap;rounded=0;" parent="VMltcIXAbGf6lN5rMRbk-24" vertex="1">
          <mxGeometry x="22" y="15" width="60" height="30" as="geometry" />
        </mxCell>
        <mxCell id="VMltcIXAbGf6lN5rMRbk-29" value="" style="edgeStyle=orthogonalEdgeStyle;rounded=0;orthogonalLoop=1;jettySize=auto;html=1;" parent="1" source="VMltcIXAbGf6lN5rMRbk-25" target="VMltcIXAbGf6lN5rMRbk-22" edge="1">
          <mxGeometry relative="1" as="geometry" />
        </mxCell>
        <mxCell id="VMltcIXAbGf6lN5rMRbk-81" value="" style="edgeStyle=orthogonalEdgeStyle;rounded=0;orthogonalLoop=1;jettySize=auto;html=1;" parent="1" source="VMltcIXAbGf6lN5rMRbk-49" target="VMltcIXAbGf6lN5rMRbk-52" edge="1">
          <mxGeometry relative="1" as="geometry" />
        </mxCell>
        <mxCell id="VMltcIXAbGf6lN5rMRbk-49" value="&quot;&quot;&lt;span style=&quot;background-color: transparent;&quot;&gt;=== Bem-vindo ao Mutare! ===&lt;/span&gt;&lt;div&gt;Escolha uma opção&lt;/div&gt;&lt;div&gt;[1] Login&lt;/div&gt;&lt;div&gt;[2] Cadastro&lt;/div&gt;&lt;span style=&quot;background-color: transparent;&quot;&gt;Digite o número da opção:&lt;/span&gt;&quot;" style="shape=document;whiteSpace=wrap;html=1;boundedLbl=1;" parent="1" vertex="1">
          <mxGeometry x="190" y="30" width="230" height="150" as="geometry" />
        </mxCell>
        <mxCell id="VMltcIXAbGf6lN5rMRbk-51" value="" style="group" parent="1" vertex="1" connectable="0">
          <mxGeometry x="460" y="30" width="104" height="60" as="geometry" />
        </mxCell>
        <mxCell id="VMltcIXAbGf6lN5rMRbk-52" value="" style="verticalLabelPosition=bottom;verticalAlign=top;html=1;shape=card;whiteSpace=wrap;size=20;arcSize=12;" parent="VMltcIXAbGf6lN5rMRbk-51" vertex="1">
          <mxGeometry width="104" height="60" as="geometry" />
        </mxCell>
        <mxCell id="VMltcIXAbGf6lN5rMRbk-53" value="Dóigito" style="text;html=1;align=center;verticalAlign=middle;whiteSpace=wrap;rounded=0;" parent="VMltcIXAbGf6lN5rMRbk-51" vertex="1">
          <mxGeometry x="22" y="15" width="60" height="30" as="geometry" />
        </mxCell>
        <mxCell id="VMltcIXAbGf6lN5rMRbk-62" value="" style="edgeStyle=orthogonalEdgeStyle;rounded=0;orthogonalLoop=1;jettySize=auto;html=1;" parent="1" source="VMltcIXAbGf6lN5rMRbk-61" target="VMltcIXAbGf6lN5rMRbk-49" edge="1">
          <mxGeometry relative="1" as="geometry">
            <Array as="points">
              <mxPoint x="150" y="150" />
              <mxPoint x="150" y="105" />
            </Array>
          </mxGeometry>
        </mxCell>
        <mxCell id="VMltcIXAbGf6lN5rMRbk-61" value="Início" style="ellipse;whiteSpace=wrap;html=1;" parent="1" vertex="1">
          <mxGeometry x="40" y="120" width="90" height="60" as="geometry" />
=======
        <mxCell id="VMltcIXAbGf6lN5rMRbk-21" value="&quot;O email já possui cadastro no sistema. Tente novamente com outro e-mail.&quot;" style="shape=document;whiteSpace=wrap;html=1;boundedLbl=1;" parent="1" vertex="1">
          <mxGeometry x="530" y="930" width="100" height="120" as="geometry" />
>>>>>>> Stashed changes
        </mxCell>
        <mxCell id="VMltcIXAbGf6lN5rMRbk-68" value="Há de 4 a 8 caracterers e pelo menos um número&amp;nbsp; na senha?" style="rhombus;whiteSpace=wrap;html=1;verticalAlign=top;arcSize=12;" parent="1" vertex="1">
          <mxGeometry x="867.5099999999999" y="1479.9099999999999" width="80" height="80" as="geometry" />
        </mxCell>
        <mxCell id="VMltcIXAbGf6lN5rMRbk-74" value="Login" style="ellipse;whiteSpace=wrap;html=1;" parent="1" vertex="1">
          <mxGeometry x="1028.41" y="1870" width="80" height="80" as="geometry" />
        </mxCell>
        <mxCell id="VMltcIXAbGf6lN5rMRbk-76" value="&lt;div&gt;&lt;br&gt;&lt;/div&gt;&lt;div&gt;&quot;Crie uma senha para sua conta, abaixo.&amp;nbsp;&lt;span style=&quot;text-align: left; background-color: transparent; color: light-dark(rgb(0, 0, 0), rgb(255, 255, 255));&quot;&gt;&quot;Sua senha deve conter de 4 a 8 caracteres, ao menos um número e uma letra maiúscula.&lt;/span&gt;&lt;/div&gt;&lt;div style=&quot;text-align: left;&quot;&gt;&lt;br style=&quot;color: rgb(255, 255, 255); text-align: center; background-color: rgb(27, 29, 30);&quot;&gt;&lt;span style=&quot;background-color: transparent; color: light-dark(rgb(0, 0, 0), rgb(255, 255, 255)); text-align: center;&quot;&gt;Crie uma senha para sua conta Mutare:&lt;/span&gt;&lt;span style=&quot;background-color: transparent; color: light-dark(rgb(0, 0, 0), rgb(255, 255, 255)); text-align: center;&quot;&gt;&quot;&lt;/span&gt;&lt;/div&gt;" style="shape=document;whiteSpace=wrap;html=1;boundedLbl=1;" parent="1" vertex="1">
          <mxGeometry x="714.87" y="960" width="220" height="124.88" as="geometry" />
        </mxCell>
        <mxCell id="sWguPrteYLZPSMapMaY1-2" value="" style="edgeStyle=orthogonalEdgeStyle;rounded=0;orthogonalLoop=1;jettySize=auto;html=1;" parent="1" source="VMltcIXAbGf6lN5rMRbk-85" target="VMltcIXAbGf6lN5rMRbk-97" edge="1">
          <mxGeometry relative="1" as="geometry" />
        </mxCell>
        <mxCell id="VMltcIXAbGf6lN5rMRbk-85" value="Digitar email novamente" style="ellipse;whiteSpace=wrap;html=1;aspect=fixed;" parent="1" vertex="1">
          <mxGeometry x="70" y="145" width="80" height="80" as="geometry" />
        </mxCell>
        <mxCell id="VMltcIXAbGf6lN5rMRbk-89" value="Digitar email novamente" style="ellipse;whiteSpace=wrap;html=1;aspect=fixed;" parent="1" vertex="1">
          <mxGeometry x="160" y="590" width="80" height="80" as="geometry" />
        </mxCell>
        <mxCell id="VMltcIXAbGf6lN5rMRbk-90" value="Digitar email novamente" style="ellipse;whiteSpace=wrap;html=1;aspect=fixed;" parent="1" vertex="1">
          <mxGeometry x="230" y="670" width="80" height="80" as="geometry" />
        </mxCell>
        <mxCell id="VMltcIXAbGf6lN5rMRbk-91" value="Digitar email novamente" style="ellipse;whiteSpace=wrap;html=1;aspect=fixed;" parent="1" vertex="1">
          <mxGeometry x="340" y="765" width="80" height="80" as="geometry" />
        </mxCell>
        <mxCell id="VMltcIXAbGf6lN5rMRbk-97" value="&quot;&lt;span style=&quot;background-color: transparent;&quot;&gt;========================================&lt;/span&gt;&lt;div&gt;&amp;nbsp; &amp;nbsp; &amp;nbsp; &amp;nbsp; &amp;nbsp; &amp;nbsp; &amp;nbsp; &amp;nbsp; CADASTRO&lt;/div&gt;&lt;div&gt;========================================&lt;/div&gt;&lt;div&gt;Digite &#39;voltar&#39; a qualquer momento para retornar ao menu.&lt;/div&gt;&lt;div&gt;&lt;br&gt;&lt;/div&gt;&lt;span style=&quot;background-color: transparent;&quot;&gt;Seu E-mail:&amp;nbsp;&lt;/span&gt;&quot;" style="shape=document;whiteSpace=wrap;html=1;boundedLbl=1;" parent="1" vertex="1">
          <mxGeometry x="250" y="40" width="330" height="200" as="geometry" />
        </mxCell>
        <mxCell id="VMltcIXAbGf6lN5rMRbk-98" value="" style="endArrow=classic;html=1;rounded=0;entryX=0.5;entryY=0;entryDx=0;entryDy=0;exitX=0.536;exitY=0.8;exitDx=0;exitDy=0;exitPerimeter=0;" parent="1" source="VMltcIXAbGf6lN5rMRbk-97" target="en4OUeSDDZcLDNvwOnU5-7" edge="1">
          <mxGeometry width="50" height="50" relative="1" as="geometry">
            <mxPoint x="430" y="490" as="sourcePoint" />
            <mxPoint x="480" y="440" as="targetPoint" />
            <Array as="points" />
          </mxGeometry>
        </mxCell>
        <mxCell id="VMltcIXAbGf6lN5rMRbk-112" value="" style="group" parent="1" vertex="1" connectable="0">
          <mxGeometry x="772.87" y="1110" width="104" height="60" as="geometry" />
        </mxCell>
        <mxCell id="VMltcIXAbGf6lN5rMRbk-63" value="" style="verticalLabelPosition=bottom;verticalAlign=top;html=1;shape=card;whiteSpace=wrap;size=20;arcSize=12;" parent="VMltcIXAbGf6lN5rMRbk-112" vertex="1">
          <mxGeometry width="104" height="60" as="geometry" />
        </mxCell>
        <mxCell id="VMltcIXAbGf6lN5rMRbk-66" value="Senha da conta" style="text;html=1;align=center;verticalAlign=middle;whiteSpace=wrap;rounded=0;" parent="VMltcIXAbGf6lN5rMRbk-112" vertex="1">
          <mxGeometry x="22" y="15" width="60" height="30" as="geometry" />
        </mxCell>
        <mxCell id="VMltcIXAbGf6lN5rMRbk-117" value="" style="edgeStyle=orthogonalEdgeStyle;rounded=0;orthogonalLoop=1;jettySize=auto;html=1;entryX=0.5;entryY=0;entryDx=0;entryDy=0;" parent="1" source="VMltcIXAbGf6lN5rMRbk-63" target="VMltcIXAbGf6lN5rMRbk-118" edge="1">
          <mxGeometry relative="1" as="geometry">
            <mxPoint x="824.8349999999999" y="1200.0349999999999" as="targetPoint" />
          </mxGeometry>
        </mxCell>
        <mxCell id="VMltcIXAbGf6lN5rMRbk-118" value="&lt;div&gt;&quot;Confirme sua senha. Digite-a novamente:&quot;&lt;/div&gt;" style="shape=document;whiteSpace=wrap;html=1;boundedLbl=1;" parent="1" vertex="1">
          <mxGeometry x="729.4999999999999" y="1199.9500000000003" width="190" height="43.75" as="geometry" />
        </mxCell>
        <mxCell id="VMltcIXAbGf6lN5rMRbk-122" value="" style="group" parent="1" vertex="1" connectable="0">
          <mxGeometry x="772.4999999999999" y="1271.8300000000002" width="104" height="60" as="geometry" />
        </mxCell>
        <mxCell id="VMltcIXAbGf6lN5rMRbk-123" value="" style="verticalLabelPosition=bottom;verticalAlign=top;html=1;shape=card;whiteSpace=wrap;size=20;arcSize=12;" parent="VMltcIXAbGf6lN5rMRbk-122" vertex="1">
          <mxGeometry width="104" height="60" as="geometry" />
        </mxCell>
        <mxCell id="VMltcIXAbGf6lN5rMRbk-124" value="Senha para confirmação" style="text;html=1;align=center;verticalAlign=middle;whiteSpace=wrap;rounded=0;" parent="VMltcIXAbGf6lN5rMRbk-122" vertex="1">
          <mxGeometry x="22" y="15" width="60" height="30" as="geometry" />
        </mxCell>
        <mxCell id="VMltcIXAbGf6lN5rMRbk-130" value="" style="edgeStyle=orthogonalEdgeStyle;rounded=0;orthogonalLoop=1;jettySize=auto;html=1;" parent="1" source="VMltcIXAbGf6lN5rMRbk-125" target="VMltcIXAbGf6lN5rMRbk-129" edge="1">
          <mxGeometry relative="1" as="geometry" />
        </mxCell>
        <mxCell id="sWguPrteYLZPSMapMaY1-7" style="edgeStyle=orthogonalEdgeStyle;rounded=0;orthogonalLoop=1;jettySize=auto;html=1;exitX=1;exitY=0.5;exitDx=0;exitDy=0;entryX=0.5;entryY=0;entryDx=0;entryDy=0;" parent="1" source="VMltcIXAbGf6lN5rMRbk-125" target="VMltcIXAbGf6lN5rMRbk-68" edge="1">
          <mxGeometry relative="1" as="geometry" />
        </mxCell>
        <mxCell id="VMltcIXAbGf6lN5rMRbk-125" value="&lt;div&gt;Senha para confirmação é igual a senha?&lt;/div&gt;" style="rhombus;whiteSpace=wrap;html=1;verticalAlign=top;arcSize=12;" parent="1" vertex="1">
          <mxGeometry x="784.4999999999999" y="1371.8300000000002" width="80" height="80" as="geometry" />
        </mxCell>
        <mxCell id="VMltcIXAbGf6lN5rMRbk-126" value="" style="edgeStyle=orthogonalEdgeStyle;rounded=0;orthogonalLoop=1;jettySize=auto;html=1;" parent="1" source="VMltcIXAbGf6lN5rMRbk-123" target="VMltcIXAbGf6lN5rMRbk-125" edge="1">
          <mxGeometry relative="1" as="geometry" />
        </mxCell>
        <mxCell id="VMltcIXAbGf6lN5rMRbk-127" value="" style="endArrow=classic;html=1;rounded=0;entryX=0.5;entryY=0;entryDx=0;entryDy=0;entryPerimeter=0;exitX=0.496;exitY=0.98;exitDx=0;exitDy=0;exitPerimeter=0;" parent="1" source="VMltcIXAbGf6lN5rMRbk-118" target="VMltcIXAbGf6lN5rMRbk-123" edge="1">
          <mxGeometry width="50" height="50" relative="1" as="geometry">
            <mxPoint x="989.4999999999999" y="1311.8300000000002" as="sourcePoint" />
            <mxPoint x="1039.5" y="1261.8300000000002" as="targetPoint" />
          </mxGeometry>
        </mxCell>
        <mxCell id="en4OUeSDDZcLDNvwOnU5-15" value="" style="edgeStyle=orthogonalEdgeStyle;rounded=0;orthogonalLoop=1;jettySize=auto;html=1;" edge="1" parent="1" source="VMltcIXAbGf6lN5rMRbk-128" target="VMltcIXAbGf6lN5rMRbk-74">
          <mxGeometry relative="1" as="geometry" />
        </mxCell>
        <mxCell id="VMltcIXAbGf6lN5rMRbk-128" value="&quot;Cadastro realizado com sucesso. Realize o login, para acessar o MUTARE&lt;span style=&quot;background-color: transparent; color: light-dark(rgb(0, 0, 0), rgb(255, 255, 255));&quot;&gt;&quot;&lt;/span&gt;" style="shape=document;whiteSpace=wrap;html=1;boundedLbl=1;" parent="1" vertex="1">
          <mxGeometry x="999.91" y="1757.81" width="137" height="80" as="geometry" />
        </mxCell>
        <mxCell id="VMltcIXAbGf6lN5rMRbk-131" style="edgeStyle=orthogonalEdgeStyle;rounded=0;orthogonalLoop=1;jettySize=auto;html=1;exitX=0;exitY=0.5;exitDx=0;exitDy=0;entryX=0.5;entryY=0;entryDx=0;entryDy=0;" parent="1" source="VMltcIXAbGf6lN5rMRbk-129" target="VMltcIXAbGf6lN5rMRbk-118" edge="1">
          <mxGeometry relative="1" as="geometry" />
        </mxCell>
        <mxCell id="VMltcIXAbGf6lN5rMRbk-129" value="&lt;div&gt;&quot;Senha diferente da inserida da primeira vez. Digite novamente a senha para confirmá-la:&quot;&lt;/div&gt;" style="shape=document;whiteSpace=wrap;html=1;boundedLbl=1;" parent="1" vertex="1">
          <mxGeometry x="549.9999999999999" y="1371.8300000000002" width="190" height="81.88" as="geometry" />
        </mxCell>
        <mxCell id="VMltcIXAbGf6lN5rMRbk-135" value="" style="edgeStyle=orthogonalEdgeStyle;rounded=0;orthogonalLoop=1;jettySize=auto;html=1;" parent="1" source="VMltcIXAbGf6lN5rMRbk-134" target="VMltcIXAbGf6lN5rMRbk-128" edge="1">
          <mxGeometry relative="1" as="geometry" />
        </mxCell>
        <mxCell id="VMltcIXAbGf6lN5rMRbk-134" value="Salva Email e Senha no banco de dados" style="rounded=0;whiteSpace=wrap;html=1;" parent="1" vertex="1">
          <mxGeometry x="1008.41" y="1680" width="120" height="60" as="geometry" />
        </mxCell>
        <mxCell id="VMltcIXAbGf6lN5rMRbk-139" value="Digitar email novamente" style="ellipse;whiteSpace=wrap;html=1;aspect=fixed;" parent="1" vertex="1">
          <mxGeometry x="410" y="950" width="80" height="80" as="geometry" />
        </mxCell>
        <mxCell id="VMltcIXAbGf6lN5rMRbk-141" value="&lt;div&gt;&quot;Número de caracteres inválido. Digite novamente.&quot;&lt;/div&gt;" style="shape=document;whiteSpace=wrap;html=1;boundedLbl=1;" parent="1" vertex="1">
          <mxGeometry x="707.5099999999999" y="1490.2200000000003" width="118.5" height="59.38" as="geometry" />
        </mxCell>
        <mxCell id="VMltcIXAbGf6lN5rMRbk-151" style="edgeStyle=orthogonalEdgeStyle;rounded=0;orthogonalLoop=1;jettySize=auto;html=1;entryX=1;entryY=0.5;entryDx=0;entryDy=0;exitX=0;exitY=0.5;exitDx=0;exitDy=0;" parent="1" source="VMltcIXAbGf6lN5rMRbk-68" target="VMltcIXAbGf6lN5rMRbk-141" edge="1">
          <mxGeometry relative="1" as="geometry">
            <mxPoint x="777.5099999999999" y="1557.4" as="sourcePoint" />
          </mxGeometry>
        </mxCell>
        <mxCell id="sWguPrteYLZPSMapMaY1-6" value="" style="endArrow=classic;html=1;rounded=0;entryX=0.5;entryY=0;entryDx=0;entryDy=0;entryPerimeter=0;exitX=0.495;exitY=0.873;exitDx=0;exitDy=0;exitPerimeter=0;" parent="1" source="VMltcIXAbGf6lN5rMRbk-76" target="VMltcIXAbGf6lN5rMRbk-63" edge="1">
          <mxGeometry width="50" height="50" relative="1" as="geometry">
            <mxPoint x="927.4599999999999" y="1380" as="sourcePoint" />
            <mxPoint x="977.4599999999999" y="1330" as="targetPoint" />
          </mxGeometry>
        </mxCell>
        <mxCell id="sWguPrteYLZPSMapMaY1-12" value="Digitar email novamente" style="ellipse;whiteSpace=wrap;html=1;aspect=fixed;" parent="1" vertex="1">
          <mxGeometry x="20" y="490" width="80" height="80" as="geometry" />
        </mxCell>
        <mxCell id="sWguPrteYLZPSMapMaY1-15" value="" style="edgeStyle=orthogonalEdgeStyle;rounded=0;orthogonalLoop=1;jettySize=auto;html=1;" parent="1" source="sWguPrteYLZPSMapMaY1-13" target="sWguPrteYLZPSMapMaY1-12" edge="1">
          <mxGeometry relative="1" as="geometry" />
        </mxCell>
        <mxCell id="sWguPrteYLZPSMapMaY1-13" value="&quot;O email inserido não pertence ao domínio ufrpe ou gmail&quot;" style="shape=document;whiteSpace=wrap;html=1;boundedLbl=1;" parent="1" vertex="1">
          <mxGeometry x="130" y="490" width="120" height="80" as="geometry" />
        </mxCell>
        <mxCell id="sWguPrteYLZPSMapMaY1-19" value="F" style="text;html=1;align=center;verticalAlign=middle;resizable=0;points=[];autosize=1;strokeColor=none;fillColor=none;" parent="1" vertex="1">
          <mxGeometry x="754.91" y="1390" width="30" height="30" as="geometry" />
        </mxCell>
        <mxCell id="sWguPrteYLZPSMapMaY1-20" value="F" style="text;html=1;align=center;verticalAlign=middle;resizable=0;points=[];autosize=1;strokeColor=none;fillColor=none;" parent="1" vertex="1">
          <mxGeometry x="837.5099999999999" y="1490.2200000000003" width="30" height="30" as="geometry" />
        </mxCell>
        <mxCell id="sWguPrteYLZPSMapMaY1-22" value="V" style="text;html=1;align=center;verticalAlign=middle;resizable=0;points=[];autosize=1;strokeColor=none;fillColor=none;" parent="1" vertex="1">
          <mxGeometry x="864.91" y="1388" width="30" height="30" as="geometry" />
        </mxCell>
        <mxCell id="sWguPrteYLZPSMapMaY1-23" value="V" style="text;html=1;align=center;verticalAlign=middle;resizable=0;points=[];autosize=1;strokeColor=none;fillColor=none;" parent="1" vertex="1">
          <mxGeometry x="961.0199999999999" y="1498" width="30" height="30" as="geometry" />
        </mxCell>
        <mxCell id="sWguPrteYLZPSMapMaY1-30" value="V" style="text;html=1;align=center;verticalAlign=middle;resizable=0;points=[];autosize=1;strokeColor=none;fillColor=none;" parent="1" vertex="1">
          <mxGeometry x="785" y="878" width="30" height="30" as="geometry" />
        </mxCell>
        <mxCell id="sWguPrteYLZPSMapMaY1-31" value="F" style="text;html=1;align=center;verticalAlign=middle;resizable=0;points=[];autosize=1;strokeColor=none;fillColor=none;" parent="1" vertex="1">
          <mxGeometry x="675" y="878" width="30" height="30" as="geometry" />
        </mxCell>
        <mxCell id="sWguPrteYLZPSMapMaY1-32" value="V" style="text;html=1;align=center;verticalAlign=middle;resizable=0;points=[];autosize=1;strokeColor=none;fillColor=none;" parent="1" vertex="1">
          <mxGeometry x="715" y="778" width="30" height="30" as="geometry" />
        </mxCell>
        <mxCell id="sWguPrteYLZPSMapMaY1-33" value="F&lt;span style=&quot;color: rgba(0, 0, 0, 0); font-family: monospace; font-size: 0px; text-align: start;&quot;&gt;%3CmxGraphModel%3E%3Croot%3E%3CmxCell%20id%3D%220%22%2F%3E%3CmxCell%20id%3D%221%22%20parent%3D%220%22%2F%3E%3CmxCell%20id%3D%222%22%20value%3D%22F%22%20style%3D%22text%3Bhtml%3D1%3Balign%3Dcenter%3BverticalAlign%3Dmiddle%3Bresizable%3D0%3Bpoints%3D%5B%5D%3Bautosize%3D1%3BstrokeColor%3Dnone%3BfillColor%3Dnone%3B%22%20vertex%3D%221%22%20parent%3D%221%22%3E%3CmxGeometry%20x%3D%22937.6%22%20y%3D%221780.22%22%20width%3D%2230%22%20height%3D%2230%22%20as%3D%22geometry%22%2F%3E%3C%2FmxCell%3E%3C%2Froot%3E%3C%2FmxGraphModel%3E&lt;/span&gt;" style="text;html=1;align=center;verticalAlign=middle;resizable=0;points=[];autosize=1;strokeColor=none;fillColor=none;" parent="1" vertex="1">
          <mxGeometry x="595" y="778" width="30" height="30" as="geometry" />
        </mxCell>
        <mxCell id="sWguPrteYLZPSMapMaY1-34" value="F&lt;span style=&quot;color: rgba(0, 0, 0, 0); font-family: monospace; font-size: 0px; text-align: start;&quot;&gt;%3CmxGraphModel%3E%3Croot%3E%3CmxCell%20id%3D%220%22%2F%3E%3CmxCell%20id%3D%221%22%20parent%3D%220%22%2F%3E%3CmxCell%20id%3D%222%22%20value%3D%22F%22%20style%3D%22text%3Bhtml%3D1%3Balign%3Dcenter%3BverticalAlign%3Dmiddle%3Bresizable%3D0%3Bpoints%3D%5B%5D%3Bautosize%3D1%3BstrokeColor%3Dnone%3BfillColor%3Dnone%3B%22%20vertex%3D%221%22%20parent%3D%221%22%3E%3CmxGeometry%20x%3D%22937.6%22%20y%3D%221780.22%22%20width%3D%2230%22%20height%3D%2230%22%20as%3D%22geometry%22%2F%3E%3C%2FmxCell%3E%3C%2Froot%3E%3C%2FmxGraphModel%3E&lt;/span&gt;" style="text;html=1;align=center;verticalAlign=middle;resizable=0;points=[];autosize=1;strokeColor=none;fillColor=none;" parent="1" vertex="1">
          <mxGeometry x="537" y="680" width="30" height="30" as="geometry" />
        </mxCell>
        <mxCell id="sWguPrteYLZPSMapMaY1-35" value="F&lt;span style=&quot;color: rgba(0, 0, 0, 0); font-family: monospace; font-size: 0px; text-align: start;&quot;&gt;%3CmxGraphModel%3E%3Croot%3E%3CmxCell%20id%3D%220%22%2F%3E%3CmxCell%20id%3D%221%22%20parent%3D%220%22%2F%3E%3CmxCell%20id%3D%222%22%20value%3D%22F%22%20style%3D%22text%3Bhtml%3D1%3Balign%3Dcenter%3BverticalAlign%3Dmiddle%3Bresizable%3D0%3Bpoints%3D%5B%5D%3Bautosize%3D1%3BstrokeColor%3Dnone%3BfillColor%3Dnone%3B%22%20vertex%3D%221%22%20parent%3D%221%22%3E%3CmxGeometry%20x%3D%22937.6%22%20y%3D%221780.22%22%20width%3D%2230%22%20height%3D%2230%22%20as%3D%22geometry%22%2F%3E%3C%2FmxCell%3E%3C%2Froot%3E%3C%2FmxGraphModel%3E&lt;/span&gt;" style="text;html=1;align=center;verticalAlign=middle;resizable=0;points=[];autosize=1;strokeColor=none;fillColor=none;" parent="1" vertex="1">
          <mxGeometry x="460" y="600" width="30" height="30" as="geometry" />
        </mxCell>
        <mxCell id="sWguPrteYLZPSMapMaY1-36" value="V" style="text;html=1;align=center;verticalAlign=middle;resizable=0;points=[];autosize=1;strokeColor=none;fillColor=none;" parent="1" vertex="1">
          <mxGeometry x="645" y="680" width="30" height="30" as="geometry" />
        </mxCell>
        <mxCell id="sWguPrteYLZPSMapMaY1-37" value="V" style="text;html=1;align=center;verticalAlign=middle;resizable=0;points=[];autosize=1;strokeColor=none;fillColor=none;" parent="1" vertex="1">
          <mxGeometry x="558.5" y="600" width="30" height="30" as="geometry" />
        </mxCell>
        <mxCell id="sWguPrteYLZPSMapMaY1-38" value="V" style="text;html=1;align=center;verticalAlign=middle;resizable=0;points=[];autosize=1;strokeColor=none;fillColor=none;" parent="1" vertex="1">
          <mxGeometry x="368" y="500" width="30" height="30" as="geometry" />
        </mxCell>
        <mxCell id="sWguPrteYLZPSMapMaY1-40" value="F&lt;span style=&quot;color: rgba(0, 0, 0, 0); font-family: monospace; font-size: 0px; text-align: start;&quot;&gt;%3CmxGraphModel%3E%3Croot%3E%3CmxCell%20id%3D%220%22%2F%3E%3CmxCell%20id%3D%221%22%20parent%3D%220%22%2F%3E%3CmxCell%20id%3D%222%22%20value%3D%22F%22%20style%3D%22text%3Bhtml%3D1%3Balign%3Dcenter%3BverticalAlign%3Dmiddle%3Bresizable%3D0%3Bpoints%3D%5B%5D%3Bautosize%3D1%3BstrokeColor%3Dnone%3BfillColor%3Dnone%3B%22%20vertex%3D%221%22%20parent%3D%221%22%3E%3CmxGeometry%20x%3D%22937.6%22%20y%3D%221780.22%22%20width%3D%2230%22%20height%3D%2230%22%20as%3D%22geometry%22%2F%3E%3C%2FmxCell%3E%3C%2Froot%3E%3C%2FmxGraphModel%3E&lt;/span&gt;" style="text;html=1;align=center;verticalAlign=middle;resizable=0;points=[];autosize=1;strokeColor=none;fillColor=none;" parent="1" vertex="1">
          <mxGeometry x="258" y="500" width="30" height="30" as="geometry" />
        </mxCell>
        <mxCell id="sWguPrteYLZPSMapMaY1-42" style="edgeStyle=orthogonalEdgeStyle;rounded=0;orthogonalLoop=1;jettySize=auto;html=1;exitX=0;exitY=0.5;exitDx=0;exitDy=0;entryX=1;entryY=0.5;entryDx=0;entryDy=0;" parent="1" source="sWguPrteYLZPSMapMaY1-43" target="sWguPrteYLZPSMapMaY1-44" edge="1">
          <mxGeometry relative="1" as="geometry">
            <mxPoint x="820.16" y="1660" as="targetPoint" />
          </mxGeometry>
        </mxCell>
        <mxCell id="sWguPrteYLZPSMapMaY1-47" style="edgeStyle=orthogonalEdgeStyle;rounded=0;orthogonalLoop=1;jettySize=auto;html=1;exitX=1;exitY=0.5;exitDx=0;exitDy=0;entryX=0.5;entryY=0;entryDx=0;entryDy=0;" parent="1" source="sWguPrteYLZPSMapMaY1-43" edge="1">
          <mxGeometry relative="1" as="geometry">
            <mxPoint x="1070.41" y="1680" as="targetPoint" />
          </mxGeometry>
        </mxCell>
        <mxCell id="sWguPrteYLZPSMapMaY1-43" value="Há pelo menos uma letra maiúscula na senha?" style="rhombus;whiteSpace=wrap;html=1;verticalAlign=top;arcSize=12;" parent="1" vertex="1">
          <mxGeometry x="965.91" y="1580" width="80" height="80" as="geometry" />
        </mxCell>
        <mxCell id="sWguPrteYLZPSMapMaY1-44" value="&lt;div&gt;Não há letra maiúscula. Digite a senha novamente&lt;/div&gt;" style="shape=document;whiteSpace=wrap;html=1;boundedLbl=1;" parent="1" vertex="1">
          <mxGeometry x="780.41" y="1587.8000000000002" width="129.5" height="64.39" as="geometry" />
        </mxCell>
        <mxCell id="sWguPrteYLZPSMapMaY1-45" value="F" style="text;html=1;align=center;verticalAlign=middle;resizable=0;points=[];autosize=1;strokeColor=none;fillColor=none;" parent="1" vertex="1">
          <mxGeometry x="935.91" y="1590.0900000000001" width="30" height="30" as="geometry" />
        </mxCell>
        <mxCell id="sWguPrteYLZPSMapMaY1-46" value="" style="endArrow=classic;html=1;rounded=0;exitX=1;exitY=0.5;exitDx=0;exitDy=0;entryX=0.5;entryY=0;entryDx=0;entryDy=0;" parent="1" source="VMltcIXAbGf6lN5rMRbk-68" target="sWguPrteYLZPSMapMaY1-43" edge="1">
          <mxGeometry width="50" height="50" relative="1" as="geometry">
            <mxPoint x="949.91" y="1550" as="sourcePoint" />
            <mxPoint x="1039.91" y="1670" as="targetPoint" />
            <Array as="points">
              <mxPoint x="1005.91" y="1520" />
            </Array>
          </mxGeometry>
        </mxCell>
        <mxCell id="sWguPrteYLZPSMapMaY1-48" value="V" style="text;html=1;align=center;verticalAlign=middle;resizable=0;points=[];autosize=1;strokeColor=none;fillColor=none;" parent="1" vertex="1">
          <mxGeometry x="1039.91" y="1600" width="30" height="30" as="geometry" />
        </mxCell>
<<<<<<< Updated upstream
        <mxCell id="t99EoDB1tFMH6DGjAn4k-3" style="edgeStyle=orthogonalEdgeStyle;rounded=0;orthogonalLoop=1;jettySize=auto;html=1;exitX=1;exitY=0.5;exitDx=0;exitDy=0;entryX=0;entryY=0.5;entryDx=0;entryDy=0;" parent="1" source="t99EoDB1tFMH6DGjAn4k-2" target="VMltcIXAbGf6lN5rMRbk-49" edge="1">
          <mxGeometry relative="1" as="geometry" />
        </mxCell>
        <mxCell id="t99EoDB1tFMH6DGjAn4k-2" value="Cadastro" style="ellipse;whiteSpace=wrap;html=1;" parent="1" vertex="1">
          <mxGeometry x="55" y="10" width="60" height="60" as="geometry" />
        </mxCell>
        <mxCell id="t99EoDB1tFMH6DGjAn4k-4" value="" style="edgeStyle=orthogonalEdgeStyle;rounded=0;orthogonalLoop=1;jettySize=auto;html=1;" parent="1" source="t99EoDB1tFMH6DGjAn4k-5" target="t99EoDB1tFMH6DGjAn4k-6" edge="1">
          <mxGeometry relative="1" as="geometry" />
        </mxCell>
        <mxCell id="t99EoDB1tFMH6DGjAn4k-20" style="edgeStyle=orthogonalEdgeStyle;rounded=0;orthogonalLoop=1;jettySize=auto;html=1;exitX=0;exitY=0.5;exitDx=0;exitDy=0;entryX=0.5;entryY=0;entryDx=0;entryDy=0;" parent="1" source="t99EoDB1tFMH6DGjAn4k-5" target="t99EoDB1tFMH6DGjAn4k-13" edge="1">
          <mxGeometry relative="1" as="geometry" />
        </mxCell>
        <mxCell id="t99EoDB1tFMH6DGjAn4k-5" value="&lt;div&gt;&lt;br&gt;&lt;/div&gt;&lt;div&gt;&lt;span style=&quot;background-color: transparent; color: light-dark(rgb(0, 0, 0), rgb(255, 255, 255));&quot;&gt;Dígito Inicial é igual a 2?&lt;/span&gt;&lt;/div&gt;" style="rhombus;whiteSpace=wrap;html=1;verticalAlign=top;arcSize=12;" parent="1" vertex="1">
          <mxGeometry x="383" y="240" width="80" height="80" as="geometry" />
        </mxCell>
        <mxCell id="t99EoDB1tFMH6DGjAn4k-6" value="&lt;div&gt;&lt;br&gt;&lt;/div&gt;Login" style="ellipse;whiteSpace=wrap;html=1;verticalAlign=top;arcSize=12;" parent="1" vertex="1">
          <mxGeometry x="501.5" y="250" width="59.5" height="60" as="geometry" />
        </mxCell>
        <mxCell id="t99EoDB1tFMH6DGjAn4k-7" value="V" style="text;html=1;align=center;verticalAlign=middle;resizable=0;points=[];autosize=1;strokeColor=none;fillColor=none;" parent="1" vertex="1">
          <mxGeometry x="461" y="250" width="30" height="30" as="geometry" />
        </mxCell>
        <mxCell id="t99EoDB1tFMH6DGjAn4k-8" value="" style="edgeStyle=orthogonalEdgeStyle;rounded=0;orthogonalLoop=1;jettySize=auto;html=1;entryX=0.5;entryY=0;entryDx=0;entryDy=0;" parent="1" source="t99EoDB1tFMH6DGjAn4k-9" target="VMltcIXAbGf6lN5rMRbk-97" edge="1">
          <mxGeometry relative="1" as="geometry">
            <mxPoint x="593.5" y="180" as="targetPoint" />
          </mxGeometry>
        </mxCell>
        <mxCell id="t99EoDB1tFMH6DGjAn4k-21" style="edgeStyle=orthogonalEdgeStyle;rounded=0;orthogonalLoop=1;jettySize=auto;html=1;exitX=0;exitY=0.5;exitDx=0;exitDy=0;entryX=0.5;entryY=0;entryDx=0;entryDy=0;" parent="1" source="t99EoDB1tFMH6DGjAn4k-9" target="t99EoDB1tFMH6DGjAn4k-5" edge="1">
          <mxGeometry relative="1" as="geometry" />
        </mxCell>
        <mxCell id="t99EoDB1tFMH6DGjAn4k-9" value="&lt;div&gt;&lt;br&gt;&lt;/div&gt;&lt;div&gt;&lt;span style=&quot;background-color: transparent; color: light-dark(rgb(0, 0, 0), rgb(255, 255, 255));&quot;&gt;Dígito Inicial é igual a 1?&lt;/span&gt;&lt;/div&gt;" style="rhombus;whiteSpace=wrap;html=1;verticalAlign=top;arcSize=12;" parent="1" vertex="1">
          <mxGeometry x="475" y="140" width="80" height="80" as="geometry" />
        </mxCell>
        <mxCell id="t99EoDB1tFMH6DGjAn4k-11" value="V" style="text;html=1;align=center;verticalAlign=middle;resizable=0;points=[];autosize=1;strokeColor=none;fillColor=none;" parent="1" vertex="1">
          <mxGeometry x="550" y="150" width="30" height="30" as="geometry" />
        </mxCell>
        <mxCell id="t99EoDB1tFMH6DGjAn4k-12" value="" style="edgeStyle=orthogonalEdgeStyle;rounded=0;orthogonalLoop=1;jettySize=auto;html=1;" parent="1" source="t99EoDB1tFMH6DGjAn4k-13" target="t99EoDB1tFMH6DGjAn4k-14" edge="1">
          <mxGeometry relative="1" as="geometry" />
        </mxCell>
        <mxCell id="t99EoDB1tFMH6DGjAn4k-17" value="" style="edgeStyle=orthogonalEdgeStyle;rounded=0;orthogonalLoop=1;jettySize=auto;html=1;" parent="1" source="t99EoDB1tFMH6DGjAn4k-13" target="t99EoDB1tFMH6DGjAn4k-16" edge="1">
          <mxGeometry relative="1" as="geometry" />
        </mxCell>
        <mxCell id="t99EoDB1tFMH6DGjAn4k-13" value="&lt;div&gt;&lt;br&gt;&lt;/div&gt;&lt;div&gt;&lt;span style=&quot;background-color: transparent; color: light-dark(rgb(0, 0, 0), rgb(255, 255, 255));&quot;&gt;Dígito Inicial é igual a 3?&lt;/span&gt;&lt;/div&gt;" style="rhombus;whiteSpace=wrap;html=1;verticalAlign=top;arcSize=12;" parent="1" vertex="1">
          <mxGeometry x="279" y="350" width="80" height="80" as="geometry" />
        </mxCell>
        <mxCell id="t99EoDB1tFMH6DGjAn4k-14" value="&lt;div&gt;&lt;span style=&quot;background-color: transparent; color: light-dark(rgb(0, 0, 0), rgb(255, 255, 255));&quot;&gt;Fim&lt;/span&gt;&lt;/div&gt;" style="ellipse;whiteSpace=wrap;html=1;verticalAlign=top;arcSize=12;" parent="1" vertex="1">
          <mxGeometry x="393.25" y="370" width="59.5" height="40" as="geometry" />
        </mxCell>
        <mxCell id="t99EoDB1tFMH6DGjAn4k-15" value="V" style="text;html=1;align=center;verticalAlign=middle;resizable=0;points=[];autosize=1;strokeColor=none;fillColor=none;" parent="1" vertex="1">
          <mxGeometry x="357" y="360" width="30" height="30" as="geometry" />
        </mxCell>
        <mxCell id="t99EoDB1tFMH6DGjAn4k-18" style="edgeStyle=orthogonalEdgeStyle;rounded=0;orthogonalLoop=1;jettySize=auto;html=1;exitX=0;exitY=0.5;exitDx=0;exitDy=0;entryX=0;entryY=0.5;entryDx=0;entryDy=0;" parent="1" source="t99EoDB1tFMH6DGjAn4k-16" target="VMltcIXAbGf6lN5rMRbk-49" edge="1">
          <mxGeometry relative="1" as="geometry">
            <Array as="points">
              <mxPoint x="110" y="390" />
              <mxPoint x="110" y="250" />
              <mxPoint x="150" y="250" />
              <mxPoint x="150" y="105" />
            </Array>
          </mxGeometry>
        </mxCell>
        <mxCell id="t99EoDB1tFMH6DGjAn4k-16" value="&quot;Dígito inválido. Digite-o novamente&quot;" style="shape=document;whiteSpace=wrap;html=1;boundedLbl=1;" parent="1" vertex="1">
          <mxGeometry x="130" y="350" width="120" height="80" as="geometry" />
        </mxCell>
        <mxCell id="t99EoDB1tFMH6DGjAn4k-22" value="F" style="text;html=1;align=center;verticalAlign=middle;resizable=0;points=[];autosize=1;strokeColor=none;fillColor=none;" parent="1" vertex="1">
          <mxGeometry x="445" y="150" width="30" height="30" as="geometry" />
        </mxCell>
        <mxCell id="t99EoDB1tFMH6DGjAn4k-23" value="F" style="text;html=1;align=center;verticalAlign=middle;resizable=0;points=[];autosize=1;strokeColor=none;fillColor=none;" parent="1" vertex="1">
          <mxGeometry x="353" y="250" width="30" height="30" as="geometry" />
        </mxCell>
        <mxCell id="t99EoDB1tFMH6DGjAn4k-24" value="F" style="text;html=1;align=center;verticalAlign=middle;resizable=0;points=[];autosize=1;strokeColor=none;fillColor=none;" parent="1" vertex="1">
          <mxGeometry x="249" y="360" width="30" height="30" as="geometry" />
=======
        <mxCell id="en4OUeSDDZcLDNvwOnU5-3" value="" style="edgeStyle=orthogonalEdgeStyle;rounded=0;orthogonalLoop=1;jettySize=auto;html=1;" edge="1" parent="1" source="en4OUeSDDZcLDNvwOnU5-2" target="VMltcIXAbGf6lN5rMRbk-97">
          <mxGeometry relative="1" as="geometry" />
        </mxCell>
        <mxCell id="en4OUeSDDZcLDNvwOnU5-2" value="Cadastro" style="ellipse;whiteSpace=wrap;html=1;aspect=fixed;" vertex="1" parent="1">
          <mxGeometry x="70" y="55" width="80" height="80" as="geometry" />
        </mxCell>
        <mxCell id="en4OUeSDDZcLDNvwOnU5-12" value="" style="edgeStyle=orthogonalEdgeStyle;rounded=0;orthogonalLoop=1;jettySize=auto;html=1;" edge="1" parent="1" source="en4OUeSDDZcLDNvwOnU5-7" target="en4OUeSDDZcLDNvwOnU5-11">
          <mxGeometry relative="1" as="geometry" />
        </mxCell>
        <mxCell id="en4OUeSDDZcLDNvwOnU5-7" value="Email é igual a &quot;voltar?&quot;" style="rhombus;whiteSpace=wrap;html=1;" vertex="1" parent="1">
          <mxGeometry x="388" y="270" width="80" height="80" as="geometry" />
        </mxCell>
        <mxCell id="en4OUeSDDZcLDNvwOnU5-10" style="edgeStyle=orthogonalEdgeStyle;rounded=0;orthogonalLoop=1;jettySize=auto;html=1;exitX=0;exitY=0.5;exitDx=0;exitDy=0;entryX=0.5;entryY=0;entryDx=0;entryDy=0;entryPerimeter=0;" edge="1" parent="1" source="en4OUeSDDZcLDNvwOnU5-7" target="0boTivlSuVRbXw25WTQz-5">
          <mxGeometry relative="1" as="geometry" />
        </mxCell>
        <mxCell id="en4OUeSDDZcLDNvwOnU5-11" value="Menu de Cadastro" style="ellipse;whiteSpace=wrap;html=1;" vertex="1" parent="1">
          <mxGeometry x="498" y="270" width="80" height="80" as="geometry" />
        </mxCell>
        <mxCell id="en4OUeSDDZcLDNvwOnU5-13" value="F" style="text;html=1;align=center;verticalAlign=middle;resizable=0;points=[];autosize=1;strokeColor=none;fillColor=none;" vertex="1" parent="1">
          <mxGeometry x="365" y="288" width="30" height="30" as="geometry" />
        </mxCell>
        <mxCell id="en4OUeSDDZcLDNvwOnU5-14" value="V" style="text;html=1;align=center;verticalAlign=middle;resizable=0;points=[];autosize=1;strokeColor=none;fillColor=none;" vertex="1" parent="1">
          <mxGeometry x="468" y="288" width="30" height="30" as="geometry" />
>>>>>>> Stashed changes
        </mxCell>
      </root>
    </mxGraphModel>
  </diagram>
</mxfile>
